<svg width="26" height="26" viewBox="0 0 26 26" fill="none" xmlns="http://www.w3.org/2000/svg">
<path d="M25.5545 2.08597C25.5545 1.35737 24.8819 0.684814 24.1533 0.684814H1.79091C1.06231 0.684814 0.445801 1.35737 0.445801 2.08597V24.4484C0.445801 25.177 1.06231 25.7935 1.79091 25.7935H13.8408V16.0975H10.5341V12.2864H13.8408V9.48407C13.8408 6.28943 15.8025 4.49596 18.7169 4.49596C20.062 4.49596 21.295 4.60805 21.6313 4.66409V8.02687H19.6136C18.0443 8.02687 17.7641 8.81151 17.7641 9.87639V12.2864H21.5192L21.0148 16.0975H17.7641V25.7935H24.1533C24.8819 25.7935 25.5545 25.177 25.5545 24.4484V2.08597Z" fill="#0699A6"/>
</svg>
