<svg width="30" height="24" viewBox="0 0 30 24" fill="none" xmlns="http://www.w3.org/2000/svg">
<path d="M26.4925 6.41033C27.6135 5.56964 28.6223 4.56081 29.4069 3.38384C28.3981 3.83221 27.2211 4.16848 26.0442 4.28058C27.2772 3.55198 28.1739 2.43105 28.6223 1.0299C27.5014 1.70245 26.2123 2.20687 24.9232 2.4871C23.8023 1.31013 22.2891 0.637573 20.6077 0.637573C17.357 0.637573 14.7228 3.27174 14.7228 6.52242C14.7228 6.97079 14.7789 7.41916 14.891 7.86753C10.015 7.5873 5.64335 5.23336 2.72895 1.70245C2.22453 2.54314 1.9443 3.55198 1.9443 4.6729C1.9443 6.69056 2.95314 8.48404 4.57848 9.54892C3.62569 9.49287 2.6729 9.26869 1.88826 8.82032V8.87636C1.88826 11.7347 3.90592 14.0887 6.59614 14.6491C6.14777 14.7612 5.58731 14.8733 5.08289 14.8733C4.69057 14.8733 4.35429 14.8173 3.96197 14.7612C4.69057 17.1152 6.87637 18.7965 9.45449 18.8526C7.43683 20.4219 4.91475 21.3747 2.16849 21.3747C1.66407 21.3747 1.2157 21.3186 0.767334 21.2626C3.34546 22.944 6.428 23.8967 9.79077 23.8967C20.6077 23.8967 26.4925 14.9854 26.4925 7.19498C26.4925 6.91475 26.4925 6.69056 26.4925 6.41033Z" fill="#0699A6"/>
</svg>
